# xmcd CD database file generated by freedbAccess_ocx
#
# Track frame offsets:
#       150
#       13312
#       25634
#       39780
#       54154
#       66646
#       78210
#       92029
#       105128
#       118638
#       131235
#       145887
#       160820
#       172908
#       185808
#       198919
#       214137
#       225638
#       239514
#       253834
#
# Disc length: 3549 seconds
#
# Revision: 0
# Processed by: cddbd v1.5.2PL0 Copyright (c) Steve Scherf et al.
# Submitted via: CDnGo 2.00
#
DISCID=0e0ddb14
DTITLE=Django Reinhart - Memorial [CD2)
DYEAR=1946
DGENRE=Jazz
TTITLE0=Honeysuckle Rose
TTITLE1=Night and day
TTITLE2=Sweet georgia Brown
TTITLE3=Daphné
TTITLE4=Souvenirs
TTITLE5=Swing from Paris
TTITLE6=Them there eyes
TTITLE7=Three little words
TTITLE8=Appel indirect
TTITLE9=Lambeth walk
TTITLE10=Jeepers Creepers
TTITLE11=Swing 39
TTITLE12=Japanese Sandman
TTITLE13=Tea for two
TTITLE14=Liza
TTITLE15=My Melancholy baby
TTITLE16=Undecided
TTITLE17=Coquette
TTITLE18=Embraceable you
TTITLE19=Echoes of France
EXTD=
EXTT0=
EXTT1=
EXTT2=
EXTT3=
EXTT4=
EXTT5=
EXTT6=
EXTT7=
EXTT8=
EXTT9=
EXTT10=
EXTT11=
EXTT12=
EXTT13=
EXTT14=
EXTT15=
EXTT16=
EXTT17=
EXTT18=
EXTT19=
PLAYORDER=
